<svg xmlns="http://www.w3.org/2000/svg" width="22.977" height="20.42" viewBox="0 0 22.977 20.42">
  <path id="Icon_awesome-edit" data-name="Icon awesome-edit" d="M16.06,3.322l3.6,3.6a.39.39,0,0,1,0,.55l-8.712,8.712-3.7.411a.776.776,0,0,1-.858-.858l.411-3.7L15.51,3.322A.39.39,0,0,1,16.06,3.322Zm6.462-.914L20.576.462a1.56,1.56,0,0,0-2.2,0L16.962,1.874a.39.39,0,0,0,0,.551l3.6,3.6a.39.39,0,0,0,.551,0L22.523,4.61a1.56,1.56,0,0,0,0-2.2Zm-7.2,11.4v4.061H2.553V5.109H11.72a.49.49,0,0,0,.339-.14l1.6-1.6a.479.479,0,0,0-.339-.818H1.915A1.915,1.915,0,0,0,0,4.471V18.513a1.915,1.915,0,0,0,1.915,1.915H15.957a1.915,1.915,0,0,0,1.915-1.915V12.218a.48.48,0,0,0-.818-.339l-1.6,1.6A.49.49,0,0,0,15.318,13.813Z" transform="translate(0 -0.007)" fill="#707070"/>
</svg>
